<?xml version="1.0" encoding="UTF-8" standalone="no"?>
<!-- Created with Inkscape (http://www.inkscape.org/) -->
<svg
   xmlns:svg="http://www.w3.org/2000/svg"
   xmlns="http://www.w3.org/2000/svg"
   version="1.0"
   width="956.69287"
   height="698.74011"
   id="svg2404">
  <defs
     id="defs2406" />
  <g
     transform="translate(3042.4583,-2615.2315)"
     id="layer1">
    <g
       transform="matrix(19.137278,0,0,19.137278,-3028.5439,2677.5424)"
       id="g2395"
       style="fill-rule:evenodd">
      <polygon
         points="9.975,4.9539 38.3947,4.9539 38.3947,25.0461 9.975,25.0461 9.975,4.9539 "
         transform="matrix(1.540372,0,0,1.540372,-13.50922,-8.10558)"
         id="_130465944"
         style="fill:#d7161c;fill-opacity:1;fill-rule:nonzero" />
      <polygon
         points="38.7186,4.9568 39.2795,4.9568 39.2795,5.0397 39.0456,5.0397 39.0456,5.6475 38.9521,5.6475 38.9521,5.0397 38.7186,5.0397 38.7186,4.9568 "
         transform="matrix(1.540372,0,0,1.540372,-13.50922,-8.10558)"
         id="_131421992"
         style="fill:#606163;fill-rule:nonzero" />
      <path
         d="M 48.004458,0.59367087 L 48.004458,-0.034492832 C 48.004458,-0.065454309 48.007692,-0.20023686 48.007692,-0.29974489 L 48.004458,-0.29974489 L 47.705009,0.59367087 L 47.563141,0.59367087 L 47.263231,-0.29805048 L 47.261074,-0.29805048 C 47.261074,-0.20023686 47.263231,-0.065454309 47.263231,-0.034492832 L 47.263231,0.59367087 L 47.124597,0.59367087 L 47.124597,-0.47026407 L 47.330545,-0.47026407 L 47.634306,0.4290051 L 47.637079,0.4290051 L 47.939146,-0.47026407 L 48.144015,-0.47026407 L 48.144015,0.59367087 L 48.004458,0.59367087 z"
         id="_21706752"
         style="fill:#606163;fill-rule:nonzero" />
      <path
         d="M 25.995776,10.397831 C 24.724816,10.397831 23.693845,9.3670136 23.693845,8.0954365 C 23.693845,6.8244756 24.724816,5.7935046 25.995776,5.7935046 L 35.204428,5.7935046 C 36.475389,5.7935046 37.506206,6.8244756 37.506206,8.0954365 C 37.506206,9.3670136 36.475389,10.397831 35.204428,10.397831 L 33.477979,10.398447 C 33.160663,10.398447 32.902496,10.655997 32.902496,10.97393 L 32.902034,21.910571 C 32.902034,23.182148 31.871063,24.212349 30.600102,24.212349 C 29.328525,24.212349 28.297708,23.182148 28.297708,21.910571 L 28.29817,10.97393 C 28.29817,10.655997 28.040158,10.398447 27.722688,10.398447 L 25.995776,10.397831 L 25.995776,10.397831 z"
         id="_130809064"
         style="fill:#ffffff;fill-rule:nonzero" />
      <path
         d="M 22.543495,21.910571 C 22.543495,23.182148 21.512678,24.212349 20.241101,24.212349 C 18.969986,24.212349 17.939169,23.182148 17.939169,21.910571 L 17.939169,14.573933 C 17.939169,14.414813 17.810394,14.286038 17.651119,14.286038 C 17.57179,14.286038 17.500163,14.318077 17.447944,14.370142 L 8.0610712,23.534739 C 7.6437845,23.953258 7.0666071,24.212349 6.4292011,24.212349 C 5.1571619,24.212349 4.1257288,23.180454 4.1257288,21.908414 C 4.1257288,21.272087 4.383279,20.696604 4.8007199,20.279163 L 18.610309,6.4668012 C 19.027134,6.0501306 19.603079,5.7924264 20.238944,5.7924264 C 21.5116,5.7924264 22.543033,6.8238595 22.543033,8.0960527 L 22.543033,22.087714 L 22.543495,21.910571 L 22.543495,21.910571 z"
         id="_131058360"
         style="fill:#ffffff;fill-rule:nonzero" />
      <path
         d="M 40.968808,9.7001961 C 41.855138,9.7001961 42.574184,8.9811504 42.574184,8.0949744 C 42.574184,7.2086444 41.855138,6.4902149 40.968808,6.4902149 C 40.083095,6.4902149 39.364203,7.2086444 39.364203,8.0949744 C 39.364203,8.9811504 40.083095,9.7001961 40.968808,9.7001961 z M 43.274591,21.910571 C 43.274591,23.182148 42.243774,24.212349 40.972197,24.212349 C 39.701082,24.212349 38.670265,23.182148 38.670265,21.910571 L 38.670265,8.0960527 C 38.670265,6.8244756 39.701082,5.7941208 40.972197,5.7941208 C 42.243774,5.7941208 43.274591,6.8244756 43.274591,8.0960527 L 43.274591,21.910571 z"
         id="_129853328"
         style="fill:#ffffff;fill-rule:nonzero" />
      <path
         d="M 13.919106,19.601091 C 13.919106,18.715223 14.637381,17.99587 15.523711,17.99587 C 16.410042,17.99587 17.128471,18.715223 17.128471,19.601091 C 17.128471,20.487421 16.410042,21.205697 15.523711,21.205697 C 14.637381,21.205697 13.919106,20.487421 13.919106,19.601091 z"
         id="_131082232"
         style="fill:#ffffff;fill-rule:nonzero" />
    </g>
  </g>
</svg>
