<?xml version="1.0" encoding="utf-8"?>
<!-- Generator: Adobe Illustrator 14.0.0, SVG Export Plug-In . SVG Version: 6.00 Build 43363)  -->
<!DOCTYPE svg PUBLIC "-//W3C//DTD SVG 1.1//EN" "http://www.w3.org/Graphics/SVG/1.1/DTD/svg11.dtd">
<svg version="1.1" id="Layer_1" xmlns="http://www.w3.org/2000/svg" xmlns:xlink="http://www.w3.org/1999/xlink" x="0px" y="0px"
	 width="270.207px" height="110.686px" viewBox="0 0 270.207 110.686" enable-background="new 0 0 270.207 110.686"
	 xml:space="preserve">
<g>
	<g>
		<path d="M148.372,16.706v-3.222h3.091V8.866l4.224-1.325v5.943h4.656v3.222h-4.656v10.23c0,1.914,0.521,2.782,2.074,2.782
			c1.148,0,2.19-0.553,2.546-0.787l1.193,3.176c-0.711,0.409-2.229,1.11-4.498,1.11c-3.938,0-5.539-2.141-5.539-5.6V16.706H148.372z
			"/>
		<path d="M171.975,16.312c-3.417,0-4.693,2.911-4.693,6.726c0,3.82,1.477,6.846,4.896,6.846c3.461,0,4.89-2.866,4.89-6.729
			C177.067,19.341,175.438,16.312,171.975,16.312 M172.137,33.22c-6.651,0-9.315-5.328-9.315-10.066
			c0-4.729,2.581-10.145,9.234-10.145c6.605,0,9.514,5.289,9.514,10.028C181.57,27.732,178.749,33.22,172.137,33.22"/>
		<path d="M219.285,20.725c-0.082-2.427-1.116-4.485-3.941-4.485c-2.591,0-4.019,1.746-4.459,4.485H219.285z M216.219,29.929
			c2.667,0,4.291-0.996,5.173-1.523l1.47,2.912c-1.117,0.673-3.18,1.902-6.925,1.902c-6.287,0-9.631-4.287-9.631-10.222
			c0-5.894,3.861-9.989,9.118-9.989c5.645,0,8.553,4.098,7.954,10.755h-12.61C210.96,27.252,212.56,29.929,216.219,29.929"/>
		<path d="M259.521,29.566l-5.473-7.424l4.505-5.398c0.955-0.076,2.286-0.236,3.081-0.433v-2.827h-5.146l-6.832,8.4V4.09
			c-2.33-0.104-4.892,0.017-7.004,0.215v2.744c0.977,0.087,2.01,0.209,2.782,0.34v22.221c-0.957,0.067-1.938,0.211-2.823,0.393
			v2.755h7.045V22.686l7.205,10.07h5.675v-2.673C261.461,29.845,260.392,29.693,259.521,29.566"/>
		<path d="M140.429,32.794c-0.118-0.487-0.319-1.838-0.365-2.711c-0.947,1.276-2.938,3.182-6.209,3.182
			c-4.172,0-5.726-2.709-5.726-6.133V16.786c-0.954-0.16-2.233-0.324-3.227-0.393v-2.625c2.074-0.197,4.898-0.361,7.442-0.243
			v12.742c0,2.138,0.764,3.374,2.949,3.374c2.425,0,4.259-2.39,4.654-2.904v-9.988c-0.832-0.123-2.027-0.287-3.023-0.354v-2.626
			c2.063-0.284,4.82-0.361,7.243-0.284v16.041c0.918,0.156,2.149,0.315,3.188,0.403v2.588
			C145.32,32.756,142.738,32.908,140.429,32.794"/>
		<path d="M197.54,27.459c-0.478,0.634-1.946,2.26-4.138,2.26c-3.182,0-4.579-2.626-4.579-6.603c0-4.02,1.711-6.684,4.82-6.684
			c2.03,0,3.145,0.796,3.896,1.464V27.459L197.54,27.459z M201.812,29.491c-0.038-0.472-0.051-1.002-0.051-1.563V4.167
			c-2.548-0.114-5.416,0.036-7.645,0.285v2.589c1.154,0.079,2.464,0.243,3.425,0.394v7.083c-0.717-0.594-2.107-1.51-4.659-1.51
			c-4.893,0-8.56,4.015-8.56,10.146c0,6.451,3.191,10.064,7.924,10.064c2.591,0,4.334-1.229,5.496-2.617
			c0.038,0.678,0.232,1.706,0.395,2.155c2.345,0.118,4.779-0.051,6.844-0.274v-2.601C203.971,29.802,202.72,29.646,201.812,29.491"
			/>
		<path d="M107.678,23.124l2.648-7.294c0.799-2.183,1.074-3.143,1.511-4.574h0.08c0.441,1.395,0.724,2.354,1.507,4.574l2.646,7.294
			H107.678z M123.238,29.719l-9.136-23.474h-4.164l-8.957,23.474c-0.72,0.083-1.599,0.247-2.237,0.45v2.587h9.546v-2.587
			c-0.907-0.203-1.986-0.413-2.942-0.487l1.118-3.057h10.901l1.134,3.094c-0.954,0.083-1.824,0.247-2.703,0.448v2.589h9.861v-2.589
			C125.113,30.005,123.797,29.719,123.238,29.719"/>
		<path d="M234.297,21.361c-2.165-0.844-3.875-1.352-3.875-2.884c0-1.435,1.451-2.248,3.362-2.248c1.063,0,2.116,0.203,2.891,0.481
			c0.111,0.821,0.216,2.065,0.386,2.411h2.794v-4.551c-0.761-0.462-2.929-1.563-6.241-1.563c-4.104,0-7.082,2.376-7.082,5.785
			c0,3.059,1.914,4.641,4.831,5.673c2.97,1.067,5.299,1.797,5.299,3.308c0,1.45-1.239,2.289-3.707,2.289
			c-1.019,0-2.273-0.199-3.043-0.48c-0.127-0.903-0.308-2.295-0.516-2.658h-2.791v4.717c1.241,0.783,3.6,1.641,6.609,1.641
			c4.532,0,7.421-2.323,7.421-5.98C240.635,24.037,237.426,22.58,234.297,21.361"/>
		<path d="M266.81,16.323c0.415,0,0.842-0.063,0.842-0.587c0-0.354-0.182-0.588-0.686-0.588h-0.542v1.176L266.81,16.323
			L266.81,16.323z M265.82,14.642h1.265c0.803,0,1.219,0.499,1.219,1.088c0,0.566-0.391,0.912-0.995,0.998
			c0.155,0.12,0.288,0.275,0.452,0.509l0.85,1.241h-0.723l-0.89-1.328c-0.188-0.273-0.29-0.369-0.574-0.369v1.697h-0.604V14.642
			L265.82,14.642z M269.681,16.59c0-1.585-1.15-2.725-2.689-2.725c-1.534,0-2.681,1.138-2.681,2.725
			c0,1.593,1.146,2.723,2.681,2.723C268.531,19.313,269.681,18.183,269.681,16.59 M263.787,16.59c0-1.775,1.437-3.215,3.205-3.215
			c1.774,0,3.215,1.439,3.215,3.215s-1.44,3.213-3.215,3.213C265.223,19.803,263.787,18.365,263.787,16.59"/>
	</g>
	<g>
		<path d="M141.678,70.177c-0.3-6.526-0.675-14.402-0.6-21.229h-0.226c-1.65,6.15-3.751,12.977-6.001,19.353l-7.426,21.904h-7.052
			l-6.751-21.604c-1.95-6.451-3.75-13.353-5.101-19.653h-0.15c-0.225,6.601-0.524,14.627-0.899,21.528l-1.126,20.328h-8.626
			l3.375-50.559h12.152l6.602,20.329c1.8,5.926,3.375,11.927,4.65,17.553h0.225c1.351-5.477,3.076-11.702,5.026-17.628l6.976-20.254
			h12.002l2.926,50.559h-9.001L141.678,70.177z"/>
		<path d="M189.313,82.028c0,3.301,0.149,6.526,0.6,8.776h-8.326l-0.675-4.051h-0.226c-2.175,2.851-6.001,4.876-10.802,4.876
			c-7.351,0-11.477-5.326-11.477-10.877c0-9.151,8.177-13.877,21.679-13.802v-0.601c0-2.4-0.976-6.376-7.427-6.376
			c-3.601,0-7.351,1.125-9.826,2.7l-1.801-6.001c2.701-1.65,7.427-3.226,13.202-3.226c11.702,0,15.078,7.427,15.078,15.453V82.028z
			 M180.311,72.952c-6.525-0.075-12.752,1.274-12.752,6.826c0,3.601,2.325,5.25,5.251,5.25c3.751,0,6.376-2.4,7.276-5.025
			c0.225-0.675,0.225-1.351,0.225-2.025V72.952z"/>
		<path d="M204.167,54.273l6.526,19.578c0.75,2.251,1.575,5.026,2.1,7.052h0.226c0.525-2.025,1.2-4.801,1.95-7.126l5.701-19.504
			h9.826l-9.151,24.904c-5.025,13.652-8.401,19.729-12.677,23.479c-3.676,3.15-7.427,4.352-9.677,4.651l-2.101-7.727
			c1.575-0.375,3.451-1.2,5.326-2.551c1.8-1.125,3.825-3.3,5.101-5.775c0.375-0.675,0.525-1.2,0.525-1.65
			c0-0.375-0.075-0.9-0.45-1.8l-13.427-33.531H204.167z"/>
		<path d="M263.727,82.028c0,3.301,0.149,6.526,0.6,8.776H256l-0.675-4.051H255.1c-2.175,2.851-6.001,4.876-10.802,4.876
			c-7.351,0-11.477-5.326-11.477-10.877c0-9.151,8.177-13.877,21.679-13.802v-0.601c0-2.4-0.976-6.376-7.427-6.376
			c-3.601,0-7.351,1.125-9.826,2.7l-1.801-6.001c2.701-1.65,7.427-3.226,13.202-3.226c11.702,0,15.078,7.427,15.078,15.453V82.028z
			 M254.725,72.952c-6.525-0.075-12.752,1.274-12.752,6.826c0,3.601,2.325,5.25,5.251,5.25c3.751,0,6.376-2.4,7.276-5.025
			c0.225-0.675,0.225-1.351,0.225-2.025V72.952z"/>
	</g>
	<g>
		<path d="M76.174,103.784C64.207,80.003,61.295,79.785,61.295,79.785s-6.67-5.949-14.964-0.9c0,0-8.563,3.924-9.282,11.857
			c0,0-0.71,8.063,1.995,10.586c0,0,4.939,6.381,15.581,3.877c3.064-0.722-5.589-7.933-5.589-7.933
			c1.081-0.54,2.885-0.54,2.885-0.54c10.817,0.723,14.422,4.868,14.422,4.868c-8.654,15.865-31.909,6.129-31.909,6.129
			c-13.521-6.669-16.083-20.372-16.083-20.372c-2.165-10.998,2.382-19.29,2.382-19.29c3.965-9.375,2.883-11.357,2.883-11.357
			c-6.128,4.687-17.307,7.933-17.307,7.933C5.228,33.634,18.388,25.34,18.388,25.34c7.212,0.18,18.208,15.685,18.208,15.685
			C32.991,15.785,0,0.1,0,0.1s32.451-2.704,59.314,20.012c0,0,14.782,12.078,22.175,34.073c1.002,2.985,5.587,27.764-4.327,51.02
			 M20.172,31.519c0,0-8.285,11.971-7.979,24.703c0,0,11.813-4.449,14.883-6.904c0,0,3.375,6.442,1.38,13.654l-1.687,4.603
			c0,0-8.592,19.947,4.449,32.068c0,0-3.05-15.727,2.608-25.778l6.904-13.808c0,0,8.744-14.882,0.46-33.139
			c0,0,6.612,3.146,8.592,12.274c1.881,8.674,2.763,15.341-8.898,34.368c0,0,4.726-3.948,6.443-5.064
			c4.424-2.875,13.348-7.059,20.405,5.368c0,0,5.83,9.361,6.904,12.581c0,0,5.217-18.715-2.915-36.822
			c0,0-5.01-15.859-16.876-26.849c-2.072-1.916-10.74-10.126-26.082-14.881l-9.974-2.609c0,0,12.12,9.358,16.109,18.412
			c0,0,6.291,14.882,2.916,23.779l-1.382,2.608C36.435,50.084,27.691,36.582,20.172,31.519z"/>
		<path d="M40.119,16.177C66.662,29.525,72.337,65.12,72.337,65.12l0.461,7.518l-4.144-7.518
			c-5.063-28.844-28.23-44.033-28.23-44.033l-3.682-5.216L40.119,16.177z"/>
		<polygon points="20.787,39.804 25.697,43.335 16.183,51.313 		"/>
	</g>
</g>
</svg>
